Exact Audio Copy V0.99 prebeta 1 from 25. May 2007

EAC 抓取日志文件从11. 十月 2010, 23:23

王秀芬 / 20世纪中华歌坛名人百集珍藏版

使用驱动器  ：PIONEER DVD-RW  DVR-115   Adapter: 0  ID: 0

读取模式     : 保护
使用精确流   : 是
废除音频缓冲 : 是
使用 C2 指针 : 否

读取偏移校正                   : 38
读取 Lead-In 和 Lead-Out       : 否
用静音填充抓取中丢失偏移的采样 : 是
去除首尾静音块                 : 否
已用接口                       : 已安装外部 ASPI 接口

所用输出格式 : 内部 WAV 函数
样本格式     : 44.100 Hz;16 Bit;立体声


被抓轨 CD 的 TOC

     音轨 |   开始   |   长度   | 起始扇区 | 结尾扇区 
    --------------------------------------------------
       1  |  0:00.32 |  4:30.63 |      32  |   20344  
       2  |  4:31.20 |  3:58.70 |   20345  |   38264  
       3  |  8:30.15 |  4:13.27 |   38265  |   57266  
       4  | 12:43.42 |  4:45.55 |   57267  |   78696  
       5  | 17:29.22 |  4:40.25 |   78697  |   99721  
       6  | 22:09.47 |  2:58.55 |   99722  |  113126  
       7  | 25:08.27 |  2:53.03 |  113127  |  126104  
       8  | 28:01.30 |  4:43.72 |  126105  |  147401  
       9  | 32:45.27 |  4:46.03 |  147402  |  168854  
      10  | 37:31.30 |  3:04.05 |  168855  |  182659  
      11  | 40:35.35 |  3:26.00 |  182660  |  198109  
      12  | 44:01.35 |  4:21.05 |  198110  |  217689  
      13  | 48:22.40 | 10:45.67 |  217690  |  266131  


范围状态及错误

已选择范围

     文件名 E:\文件夹\20世纪中华歌坛名人百集珍藏版-王秀芬[lwg188原创]\王秀芬 - 20世纪中华歌坛名人百集珍藏版.wav

     峰值电平 99.5 %
     范围质量 99.9 %
     复制 CRC 12E5454B
     复制成功

没有错误发生

状态报告结尾
